<?xml version="1.0" encoding="UTF-8"?> <svg xmlns="http://www.w3.org/2000/svg" width="236" height="186" viewBox="0 0 236 186" fill="none"> <path fill-rule="evenodd" clip-rule="evenodd" d="M11.7866 5.96154C11.7866 9.25401 9.14812 11.9231 5.89334 11.9231C2.63856 11.9231 4.07694e-05 9.25401 4.07694e-05 5.96154C4.07694e-05 2.66907 2.63856 0 5.89334 0C9.14812 0 11.7866 2.66907 11.7866 5.96154ZM11.7866 40.5385C11.7866 43.8309 9.14808 46.5 5.8933 46.5C2.63852 46.5 0 43.8309 0 40.5385C0 37.246 2.63852 34.5769 5.8933 34.5769C9.14808 34.5769 11.7866 37.246 11.7866 40.5385ZM43.6105 11.9231C46.8653 11.9231 49.5038 9.25401 49.5038 5.96154C49.5038 2.66907 46.8653 0 43.6105 0C40.3557 0 37.7172 2.66907 37.7172 5.96154C37.7172 9.25401 40.3557 11.9231 43.6105 11.9231ZM49.5038 40.5385C49.5038 43.8309 46.8652 46.5 43.6105 46.5C40.3557 46.5 37.7172 43.8309 37.7172 40.5385C37.7172 37.246 40.3557 34.5769 43.6105 34.5769C46.8652 34.5769 49.5038 37.246 49.5038 40.5385ZM80.1489 11.9231C83.4037 11.9231 86.0422 9.25406 86.0422 5.96159C86.0422 2.66913 83.4037 5.43592e-05 80.1489 5.43592e-05C76.8941 5.43592e-05 74.2556 2.66913 74.2556 5.96159C74.2556 9.25406 76.8941 11.9231 80.1489 11.9231ZM86.0422 40.5385C86.0422 43.8309 83.4037 46.5 80.1489 46.5C76.8942 46.5 74.2556 43.8309 74.2556 40.5385C74.2556 37.246 76.8942 34.5769 80.1489 34.5769C83.4037 34.5769 86.0422 37.246 86.0422 40.5385ZM117.866 11.9231C121.121 11.9231 123.759 9.25401 123.759 5.96154C123.759 2.66907 121.121 0 117.866 0C114.611 0 111.973 2.66907 111.973 5.96154C111.973 9.25401 114.611 11.9231 117.866 11.9231ZM123.759 40.5385C123.759 43.8309 121.121 46.5 117.866 46.5C114.611 46.5 111.973 43.8309 111.973 40.5385C111.973 37.246 114.611 34.5769 117.866 34.5769C121.121 34.5769 123.759 37.246 123.759 40.5385ZM155.583 11.9231C158.838 11.9231 161.477 9.25401 161.477 5.96154C161.477 2.66907 158.838 0 155.583 0C152.328 0 149.69 2.66907 149.69 5.96154C149.69 9.25401 152.328 11.9231 155.583 11.9231ZM161.476 40.5385C161.476 43.8309 158.838 46.5 155.583 46.5C152.328 46.5 149.69 43.8309 149.69 40.5385C149.69 37.246 152.328 34.5769 155.583 34.5769C158.838 34.5769 161.476 37.246 161.476 40.5385ZM192.122 11.9231C195.376 11.9231 198.015 9.25401 198.015 5.96154C198.015 2.66907 195.376 0 192.122 0C188.867 0 186.228 2.66907 186.228 5.96154C186.228 9.25401 188.867 11.9231 192.122 11.9231ZM198.015 40.5385C198.015 43.8309 195.376 46.5 192.122 46.5C188.867 46.5 186.228 43.8309 186.228 40.5385C186.228 37.246 188.867 34.5769 192.122 34.5769C195.376 34.5769 198.015 37.246 198.015 40.5385ZM229.839 11.9231C233.094 11.9231 235.732 9.25401 235.732 5.96154C235.732 2.66907 233.094 0 229.839 0C226.584 0 223.945 2.66907 223.945 5.96154C223.945 9.25401 226.584 11.9231 229.839 11.9231ZM235.732 40.5385C235.732 43.8309 233.094 46.5 229.839 46.5C226.584 46.5 223.945 43.8309 223.945 40.5385C223.945 37.246 226.584 34.5769 229.839 34.5769C233.094 34.5769 235.732 37.246 235.732 40.5385ZM5.89337 81.077C9.14815 81.077 11.7867 78.4079 11.7867 75.1154C11.7867 71.823 9.14815 69.1539 5.89337 69.1539C2.63859 69.1539 6.79491e-05 71.823 6.79491e-05 75.1154C6.79491e-05 78.4079 2.63859 81.077 5.89337 81.077ZM49.5037 75.1154C49.5037 78.4079 46.8652 81.077 43.6104 81.077C40.3557 81.077 37.7171 78.4079 37.7171 75.1154C37.7171 71.823 40.3557 69.1539 43.6104 69.1539C46.8652 69.1539 49.5037 71.823 49.5037 75.1154ZM80.149 81.077C83.4038 81.077 86.0423 78.4079 86.0423 75.1154C86.0423 71.823 83.4038 69.1539 80.149 69.1539C76.8942 69.1539 74.2557 71.823 74.2557 75.1154C74.2557 78.4079 76.8942 81.077 80.149 81.077ZM123.759 75.1154C123.759 78.4079 121.121 81.077 117.866 81.077C114.611 81.077 111.973 78.4079 111.973 75.1154C111.973 71.823 114.611 69.1539 117.866 69.1539C121.121 69.1539 123.759 71.823 123.759 75.1154ZM155.583 81.077C158.838 81.077 161.477 78.4079 161.477 75.1154C161.477 71.823 158.838 69.1539 155.583 69.1539C152.328 69.1539 149.69 71.823 149.69 75.1154C149.69 78.4079 152.328 81.077 155.583 81.077ZM198.015 75.1154C198.015 78.4079 195.376 81.077 192.122 81.077C188.867 81.077 186.228 78.4079 186.228 75.1154C186.228 71.823 188.867 69.1539 192.122 69.1539C195.376 69.1539 198.015 71.823 198.015 75.1154ZM229.839 81.077C233.093 81.077 235.732 78.4079 235.732 75.1154C235.732 71.823 233.093 69.1539 229.839 69.1539C226.584 69.1539 223.945 71.823 223.945 75.1154C223.945 78.4079 226.584 81.077 229.839 81.077ZM11.7867 110.885C11.7867 114.177 9.14814 116.846 5.89335 116.846C2.63857 116.846 5.43592e-05 114.177 5.43592e-05 110.885C5.43592e-05 107.592 2.63857 104.923 5.89335 104.923C9.14814 104.923 11.7867 107.592 11.7867 110.885ZM43.6104 116.846C46.8652 116.846 49.5037 114.177 49.5037 110.885C49.5037 107.592 46.8652 104.923 43.6104 104.923C40.3556 104.923 37.7171 107.592 37.7171 110.885C37.7171 114.177 40.3556 116.846 43.6104 116.846ZM86.0422 110.885C86.0422 114.177 83.4037 116.846 80.1489 116.846C76.8941 116.846 74.2556 114.177 74.2556 110.885C74.2556 107.592 76.8941 104.923 80.1489 104.923C83.4037 104.923 86.0422 107.592 86.0422 110.885ZM117.866 116.846C121.121 116.846 123.759 114.177 123.759 110.885C123.759 107.592 121.121 104.923 117.866 104.923C114.611 104.923 111.973 107.592 111.973 110.885C111.973 114.177 114.611 116.846 117.866 116.846ZM161.476 110.885C161.476 114.177 158.838 116.846 155.583 116.846C152.328 116.846 149.69 114.177 149.69 110.885C149.69 107.592 152.328 104.923 155.583 104.923C158.838 104.923 161.476 107.592 161.476 110.885ZM192.122 116.846C195.376 116.846 198.015 114.177 198.015 110.885C198.015 107.592 195.376 104.923 192.122 104.923C188.867 104.923 186.228 107.592 186.228 110.885C186.228 114.177 188.867 116.846 192.122 116.846ZM235.732 110.885C235.732 114.177 233.093 116.846 229.839 116.846C226.584 116.846 223.945 114.177 223.945 110.885C223.945 107.592 226.584 104.923 229.839 104.923C233.093 104.923 235.732 107.592 235.732 110.885ZM5.89331 151.423C9.1481 151.423 11.7866 148.754 11.7866 145.461C11.7866 142.169 9.1481 139.5 5.89331 139.5C2.63853 139.5 1.35898e-05 142.169 1.35898e-05 145.461C1.35898e-05 148.754 2.63853 151.423 5.89331 151.423ZM49.5037 145.462C49.5037 148.754 46.8652 151.423 43.6104 151.423C40.3556 151.423 37.7171 148.754 37.7171 145.462C37.7171 142.169 40.3556 139.5 43.6104 139.5C46.8652 139.5 49.5037 142.169 49.5037 145.462ZM80.1489 151.423C83.4037 151.423 86.0422 148.754 86.0422 145.462C86.0422 142.169 83.4037 139.5 80.1489 139.5C76.8941 139.5 74.2556 142.169 74.2556 145.462C74.2556 148.754 76.8941 151.423 80.1489 151.423ZM123.759 145.461C123.759 148.754 121.121 151.423 117.866 151.423C114.611 151.423 111.973 148.754 111.973 145.461C111.973 142.169 114.611 139.5 117.866 139.5C121.121 139.5 123.759 142.169 123.759 145.461ZM155.583 151.423C158.838 151.423 161.476 148.754 161.476 145.461C161.476 142.169 158.838 139.5 155.583 139.5C152.328 139.5 149.69 142.169 149.69 145.461C149.69 148.754 152.328 151.423 155.583 151.423ZM198.015 145.461C198.015 148.754 195.376 151.423 192.122 151.423C188.867 151.423 186.228 148.754 186.228 145.461C186.228 142.169 188.867 139.5 192.122 139.5C195.376 139.5 198.015 142.169 198.015 145.461ZM229.839 151.423C233.094 151.423 235.732 148.754 235.732 145.462C235.732 142.169 233.094 139.5 229.839 139.5C226.584 139.5 223.945 142.169 223.945 145.462C223.945 148.754 226.584 151.423 229.839 151.423ZM11.7866 180.038C11.7866 183.331 9.14808 186 5.8933 186C2.63852 186 0 183.331 0 180.038C0 176.746 2.63852 174.077 5.8933 174.077C9.14808 174.077 11.7866 176.746 11.7866 180.038ZM43.6104 186C46.8652 186 49.5037 183.331 49.5037 180.038C49.5037 176.746 46.8652 174.077 43.6104 174.077C40.3557 174.077 37.7171 176.746 37.7171 180.038C37.7171 183.331 40.3557 186 43.6104 186ZM86.0423 180.039C86.0423 183.331 83.4037 186 80.149 186C76.8942 186 74.2557 183.331 74.2557 180.039C74.2557 176.746 76.8942 174.077 80.149 174.077C83.4037 174.077 86.0423 176.746 86.0423 180.039ZM117.866 186C121.121 186 123.759 183.331 123.759 180.039C123.759 176.746 121.121 174.077 117.866 174.077C114.611 174.077 111.973 176.746 111.973 180.039C111.973 183.331 114.611 186 117.866 186ZM161.477 180.038C161.477 183.331 158.838 186 155.583 186C152.328 186 149.69 183.331 149.69 180.038C149.69 176.746 152.328 174.077 155.583 174.077C158.838 174.077 161.477 176.746 161.477 180.038ZM192.122 186C195.376 186 198.015 183.331 198.015 180.039C198.015 176.746 195.376 174.077 192.122 174.077C188.867 174.077 186.228 176.746 186.228 180.039C186.228 183.331 188.867 186 192.122 186ZM235.732 180.038C235.732 183.331 233.093 186 229.839 186C226.584 186 223.945 183.331 223.945 180.038C223.945 176.746 226.584 174.077 229.839 174.077C233.093 174.077 235.732 176.746 235.732 180.038Z" fill="#F9CBE2" fill-opacity="0.6"></path> </svg> 